<svg id="Layer_1" data-name="Layer 1" xmlns="http://www.w3.org/2000/svg" viewBox="0 0 509.18 576.35"><defs><style>.cls-1{fill:#ff7977;}</style></defs><title>Airbnb Logo Vector</title><g id="Logo"><path class="cls-1" d="M680.66,514.68a92.35,92.35,0,0,0-6.82-32.58c-3.14-8-6.8-15.84-10.36-23.69q-42.57-92.79-89.33-183.55c-4.38-8.45-8.67-17-13.3-25.28-4.55-8.12-9.85-15.94-16.7-22.29a65.16,65.16,0,0,0-40.68-17.58h-6.94a64.91,64.91,0,0,0-41.77,18.12c-6.6,6.25-11.71,13.88-16.14,21.77-4.57,8.19-8.8,16.56-13.1,24.88q-31.36,60.88-60.88,122.7c-11.72,24.66-23.35,49.35-34.53,74.26-4.64,10.37-8.84,21.1-10.42,32.42a82.79,82.79,0,0,0,48.91,88,84.29,84.29,0,0,0,38.23,6.77c17.49-.93,34.36-7.21,49.15-16.38,16.51-10.13,30.63-23.61,43.78-37.71,12.22,13.17,25.31,25.74,40.4,35.6,14.59,9.59,31.22,16.54,48.71,18.19a83,83,0,0,0,85.93-51.76A82.53,82.53,0,0,0,680.66,514.68Zm-180.82-7.37c-4.77-5.62-9-11.69-13.19-17.72a216.87,216.87,0,0,1-18.75-32.81c-4.26-9.54-7.68-19.56-9-30-1-8.25-.74-16.87,2.29-24.7a36.35,36.35,0,0,1,14.53-17.93c15.73-10.15,38.16-9.06,52.41,3.26,7.22,6.15,11.53,15.24,12.61,24.58,1.42,12.41-1.4,24.88-5.73,36.46C526.81,470,513.85,489.23,499.84,507.31Zm154.37,26.33a58.47,58.47,0,0,1-27.53,34.5,60.06,60.06,0,0,1-38.92,6.59c-16.83-2.61-31.93-11.54-45-22.08A239.42,239.42,0,0,1,516.18,527c13.1-16.56,25.43-33.89,34.86-52.83,8.22-16.59,14.47-34.56,15.07-53.21.33-11.84-1.9-23.89-7.43-34.43a63.12,63.12,0,0,0-35.07-30.12A71.85,71.85,0,0,0,480.12,355a63,63,0,0,0-46.45,56.68c-1.49,17.42,2.87,34.81,9.48,50.83,9.82,23.41,24.24,44.59,40.16,64.25A219.7,219.7,0,0,1,460,550c-12.92,10.94-27.71,20.46-44.46,24.08A61.07,61.07,0,0,1,375,569.28,58.35,58.35,0,0,1,345,532.67a60.22,60.22,0,0,1,1.32-35.28c3.19-9.34,7.51-18.25,11.56-27.24q42.09-91.78,88.33-181.6c4.59-8.91,9.11-17.86,14-26.62,4-7.06,8.59-14,15.11-19a40.36,40.36,0,0,1,50.07.94c6.94,5.76,11.63,13.65,15.84,21.51,9.52,17.88,18.66,36,27.81,54Q608.17,397,644.25,476c3.64,8.18,7.53,16.29,10,24.92A59.92,59.92,0,0,1,654.21,533.64Z" transform="translate(-245.41 -209.71)"/><path class="cls-1" d="M363.62,646.86a16,16,0,0,1,18.49,11.21c2.54,8-2.5,17.26-10.53,19.57-7.84,2.76-17.15-2-19.75-9.86a16,16,0,0,1,6-18.46,16.19,16.19,0,0,1,5.76-2.46Z" transform="translate(-245.41 -209.71)"/><path class="cls-1" d="M416.71,698.4A31.29,31.29,0,0,1,435,689a43.22,43.22,0,0,1,13.7.87c-.06,7.25,0,14.48,0,21.73-7-1.82-14.67-2.2-21.59.35a25.62,25.62,0,0,0-9.89,6.5c-.59.5-.45,1.32-.5,2,0,20.24,0,40.48,0,60.72a7.1,7.1,0,0,1-.23,2.39c-7.82.18-15.64,0-23.46.06q0-46.29,0-92.58c6.58,0,13.17,0,19.76,0a3.5,3.5,0,0,1,3.52,2.08,19.14,19.14,0,0,1,.39,5.24Z" transform="translate(-245.41 -209.71)"/><path class="cls-1" d="M585.23,698.48c6.26-6.47,15.32-9.65,24.22-9.67,9.4-.24,19,2.54,26.3,8.64a28.67,28.67,0,0,1,9.94,14.95c2.07,7.22,1.88,14.79,1.85,22.22q0,24.52,0,49c-7.88,0-15.76.06-23.64,0v-49c0-6.06.29-12.62-2.94-18-2.25-3.88-6.7-5.81-11-6.26a25.75,25.75,0,0,0-22.34,7.9,3,3,0,0,0-1,2.26c-.07,2.53.31,5.07.09,7.59-.31,3.44.17,6.88.06,10.32-.12,6.5-.09,13,0,19.49-.45,8.59.33,17.21-.18,25.79-7.86,0-15.7,0-23.55,0,0-30.87-.06-61.74,0-92.61,6.07.05,12.15,0,18.22,0a3.5,3.5,0,0,1,3.69,2.38,25.42,25.42,0,0,1,.3,5Z" transform="translate(-245.41 -209.71)"/><path class="cls-1" d="M355,783.67c0-30.87-.05-61.74,0-92.61q11.73,0,23.45,0c.07,30.87,0,61.73,0,92.59Z" transform="translate(-245.41 -209.71)"/><path class="cls-1" d="M340.41,691.08c-6.2,0-12.4,0-18.6,0-1.64,0-3.73.07-4.53,1.79s-.45,3.74-.51,5.6A31.48,31.48,0,0,0,296.88,689a47.65,47.65,0,0,0-32.69,9.15A46.35,46.35,0,0,0,248,720.85a59.37,59.37,0,0,0-2.58,13v6.34c.66,13.26,6.56,26.39,16.85,34.94A47.85,47.85,0,0,0,290.11,786h5.27a31.93,31.93,0,0,0,21.4-9.82c.05,1.87-.22,3.85.48,5.65.73,1.45,2.46,1.85,3.95,1.79,6.4,0,12.8,0,19.21,0Q340.42,737.37,340.41,691.08Zm-24.36,63.74a25.1,25.1,0,0,1-19.73,8.88c-8,.06-16.3-3-21.49-9.28-5.05-6-6.58-14.32-5.43-21.94a24.43,24.43,0,0,1,9-15.9,28.87,28.87,0,0,1,15.86-5.78,25.81,25.81,0,0,1,22.48,9.83c.28,10.06,0,20.15.13,30.23C316.75,752.18,317.11,753.78,316.05,754.82Z" transform="translate(-245.41 -209.71)"/><path class="cls-1" d="M549.48,717.56a46.26,46.26,0,0,0-18.3-21.71,48.05,48.05,0,0,0-28.45-7,31.87,31.87,0,0,0-20.87,9.55c0-17.3,0-34.58,0-51.87-7.89,0-15.78,0-23.67,0,0,45.67-.06,91.37.06,137q9.79,0,19.6,0a3.6,3.6,0,0,0,3.82-2.41,27.91,27.91,0,0,0,.21-5.09c5.49,6.09,13.54,9.4,21.63,9.89h4.83c13.11-.66,26-6.8,34.19-17.1C554,754.82,556.29,734.28,549.48,717.56Zm-27.58,39a28.65,28.65,0,0,1-19.73,7.19,25,25,0,0,1-19.61-9,2.82,2.82,0,0,1-.73-2.21q0-15.88,0-31.78a26.21,26.21,0,0,1,19.2-10c7.52-.22,15.41,2,20.92,7.29,5.26,4.88,7.83,12.2,7.66,19.28A25.68,25.68,0,0,1,521.9,756.52Z" transform="translate(-245.41 -209.71)"/><path class="cls-1" d="M744,706.1c-10-12.77-27.17-19.21-43.16-16.82a31.19,31.19,0,0,0-17.67,9.16c-.05-17.28,0-34.56,0-51.85q-11.81,0-23.61,0,0,68.52,0,137c6.21.05,12.43,0,18.63.05,1.63,0,3.67-.1,4.5-1.77s.46-3.8.51-5.7c5.44,6,13.31,9.25,21.28,9.84h5.32a47.17,47.17,0,0,0,33.85-16.9,49.89,49.89,0,0,0,10.92-28.89v-6.19C753.85,724,750.45,714,744,706.1Zm-18.42,47.76c-6.25,8-17.26,11-27,9.47-6-1.19-11.72-4.4-15.24-9.41-.39-3.89,0-7.83-.16-11.74.09-7.18-.17-14.39.12-21.57,3.58-4.93,9.31-8.1,15.21-9.4,10.9-2,23.59,2.3,29.1,12.38C732.65,732.91,732.15,745.37,725.62,753.86Z" transform="translate(-245.41 -209.71)"/></g></svg>